/vscmnt/brussel_pixiu_data/_data_brussel/112/vsc11236/PredSimResults/SUBJ04mtu3D/weighted-LRposFixed/trackIG/worker_01.mot
version=1
nRows=9
nColumns=50
inDegrees=yes
endheader
                time	         pelvis_tilt	         pelvis_list	     pelvis_rotation	           pelvis_tx	           pelvis_ty	           pelvis_tz	       hip_flexion_r	     hip_adduction_r	      hip_rotation_r	        knee_angle_r	       ankle_angle_r	         mtp_angle_r	       hip_flexion_l	     hip_adduction_l	      hip_rotation_l	        knee_angle_l	       ankle_angle_l	         mtp_angle_l	    lumbar_extension	      lumbar_bending	     lumbar_rotation	 ercspn_r/activation	 intobl_r/activation	 extobl_r/activation	    abd_r/activation	    add_r/activation	hamstrings_r/activation	bifemsh_r/activation	glut_max_r/activation	iliopsoas_r/activation	rect_fem_r/activation	  vasti_r/activation	gastroc_r/activation	 soleus_r/activation	tib_ant_r/activation	 ercspn_l/activation	 intobl_l/activation	 extobl_l/activation	    abd_l/activation	    add_l/activation	hamstrings_l/activation	bifemsh_l/activation	glut_max_l/activation	iliopsoas_l/activation	rect_fem_l/activation	  vasti_l/activation	gastroc_l/activation	 soleus_l/activation	tib_ant_l/activation	
          1.36900499	         -5.08268852	         -4.71953091	         12.12727450	          1.23210449	          0.88430336	         -0.02049568	         24.20780785	          0.33589721	         -5.16559079	          2.46657119	          5.26125725	          0.21196055	         -9.06453376	         -4.45041637	         15.08641296	         -8.14468926	         12.23545590	         23.11263202	         -3.45403577	          1.71017341	         -1.01183348	          0.09550984	          0.16288240	          0.02141125	          0.02553060	          0.09231866	          0.02854793	          0.01000000	          0.00999999	          0.06006540	          0.01000000	          0.01925405	          0.00999999	          0.00999999	          0.26286129	          0.02931645	          0.00999999	          0.00999999	          0.09262137	          0.00999999	          0.01870571	          0.14164117	          0.06667032	          0.33004941	          0.00999999	          0.00999999	          0.30065727	          0.27446943	          0.01508394	
          1.38269504	         -5.20438337	         -4.60813036	         12.00249632	          1.24686007	          0.88247087	         -0.01946183	         23.83596393	          0.60645849	         -3.86529652	          1.93442172	          4.92058133	          0.21986036	         -9.29451608	         -4.30785627	         14.26167235	         -9.40743327	         12.00483570	         24.76958913	         -3.17821615	          1.98696289	         -1.27104679	          0.07776613	          0.16176509	          0.01743349	          0.02078756	          0.11983129	          0.02558931	          0.00999999	          0.01039080	          0.04890652	          0.00999999	          0.01567706	          0.01533445	          0.01508395	          0.26388479	          0.05345793	          0.00999999	          0.00999999	          0.07541428	          0.01908812	          0.01559120	          0.11532724	          0.05542757	          0.29577321	          0.00999999	          0.00999999	          0.27776213	          0.26900222	          0.01228166	
          1.39638509	         -5.30970299	         -4.49225790	         11.81035463	          1.26199869	          0.88079153	         -0.01833597	         23.34002862	          0.87858108	         -2.60827609	          1.35355104	          4.52507303	          0.21168264	         -9.47094687	         -4.14554186	         13.39573703	        -10.84953866	         11.65498378	         26.46337078	         -2.88463805	          2.28262577	         -1.52222961	          0.06735856	          0.17319925	          0.01419472	          0.02963012	          0.09756918	          0.02823011	          0.05424207	          0.01872843	          0.03982073	          0.00999999	          0.01276459	          0.01248563	          0.01228167	          0.29940161	          0.07644056	          0.00999999	          0.00999999	          0.06140390	          0.03127179	          0.01269469	          0.09390188	          0.04513030	          0.25768771	          0.00999999	          0.00999999	          0.25231273	          0.25640166	          0.00999999	
          1.41007514	         -5.39938768	         -4.37715058	         11.54112094	          1.27733807	          0.87946931	         -0.01710323	         22.73936716	          1.16908529	         -1.42444052	          0.95993953	          3.99740736	          0.19926316	         -9.53516774	         -3.95862003	         12.48414985	        -12.53920190	         11.12796658	         28.18607522	         -2.59170173	          2.60334477	         -1.76479145	          0.06962290	          0.15528032	          0.01155764	          0.05272059	          0.07944289	          0.02926875	          0.04416505	          0.02985187	          0.03242288	          0.00999999	          0.01039320	          0.01016606	          0.01000000	          0.32540016	          0.09991860	          0.00999999	          0.00999999	          0.04999636	          0.03355915	          0.01137048	          0.07645690	          0.03674605	          0.21676220	          0.01000000	          0.00999999	          0.21330214	          0.23709073	          0.00999999	
          1.42376519	         -5.47356241	         -4.26245743	         11.19453983	          1.29273405	          0.87867150	         -0.01578113	         22.07943785	          1.47841039	         -0.32172794	          0.63727320	          3.51957452	          0.18488245	         -9.45483036	         -3.74356072	         11.50859929	        -14.49864062	         10.37791052	         29.88268992	         -2.31056120	          2.94914554	         -1.99679071	          0.06567728	          0.12646572	          0.00999999	          0.07289822	          0.06468409	          0.03402652	          0.03596012	          0.03521190	          0.02639939	          0.00999999	          0.01331061	          0.00999999	          0.00999999	          0.34759475	          0.11695716	          0.00999999	          0.00999999	          0.04070809	          0.03394366	          0.01231316	          0.06225283	          0.02991941	          0.18748046	          0.00999999	          0.00999999	          0.17367512	          0.20397233	          0.00999999	
          1.43745524	         -5.53235623	         -4.14369621	         10.77567830	          1.30808653	          0.87846373	         -0.01438877	         21.37703481	          1.79507749	          0.69854496	          0.34514603	          3.15819222	          0.17151625	         -9.21453790	         -3.49920457	         10.45279888	        -16.72983558	          9.40630720	         31.43408825	         -2.04762262	          3.31124271	         -2.21429149	          0.05919344	          0.10297107	          0.00999999	          0.09255863	          0.06245058	          0.03849750	          0.02927949	          0.03037928	          0.02149495	          0.00999999	          0.01811718	          0.00999999	          0.00999999	          0.35936362	          0.12766334	          0.00999999	          0.00999999	          0.03314539	          0.04043415	          0.01802874	          0.05068757	          0.02436102	          0.16870145	          0.00999999	          0.00999999	          0.14140996	          0.16607859	          0.00999999	
          1.45114529	         -5.57592360	         -4.01339325	         10.29114627	          1.32330403	          0.87882823	         -0.01294521	         20.64154762	          2.10317359	          1.64020978	          0.06837137	          2.93408215	          0.16131272	         -8.79905086	         -3.22417830	          9.29823794	        -19.24035663	          8.26160217	         32.66077000	         -1.81047360	          3.67758981	         -2.41469232	          0.05174565	          0.08384123	          0.00999999	          0.11134121	          0.06357963	          0.04137938	          0.02383998	          0.02473545	          0.01750164	          0.00999999	          0.01567062	          0.00999999	          0.00999999	          0.35775733	          0.13630603	          0.00999999	          0.00999999	          0.02698768	          0.05092395	          0.02323291	          0.04127090	          0.01983526	          0.15271258	          0.00999999	          0.00999999	          0.11513899	          0.13522471	          0.00999999	
          1.46483534	         -5.60481692	         -3.85978961	          9.74683024	          1.33830280	          0.87973702	         -0.01146958	         19.87597841	          2.38221224	          2.49985685	         -0.18815108	          2.83267564	          0.15432733	         -8.19458027	         -2.91868066	          8.02502222	        -22.03389888	          7.01511923	         33.32913009	         -1.60736235	          4.03231260	         -2.59654284	          0.04595506	          0.06826530	          0.00999999	          0.11885287	          0.05176788	          0.04426442	          0.01941102	          0.02014013	          0.01425021	          0.00999999	          0.01533070	          0.00999999	          0.00999999	          0.34840183	          0.13766560	          0.00999999	          0.00999999	          0.02197394	          0.05869416	          0.02650933	          0.03468484	          0.01615029	          0.13690677	          0.00999999	          0.00999999	          0.09374860	          0.11010282	          0.00999999	
          1.47852539	         -5.61953655	         -3.66769594	          9.14789519	          1.35303476	          0.88115134	         -0.00997799	         19.07757950	          2.61108016	          3.28266523	         -0.40843126	          2.81549802	          0.15112350	         -7.39427194	         -2.58664260	          6.63271193	        -25.10378965	          5.68660971	         33.31511936	         -1.44397602	          4.35641346	         -2.75819292	          0.04262157	          0.05558306	          0.00999999	          0.11732207	          0.04215051	          0.04697159	          0.01580487	          0.01767222	          0.01160282	          0.00999999	          0.01423871	          0.00999999	          0.00999999	          0.33518336	          0.13413928	          0.00999999	          0.00999999	          0.01789165	          0.06785313	          0.02651206	          0.03245203	          0.01314991	          0.12381063	          0.00999999	          0.00999999	          0.07633210	          0.08964805	          0.00999999	
